HIERARCHY
ROOT Hips
{
  OFFSET 44.7658 97.2941 -117.496
  CHANNELS 6 Xposition Yposition Zposition Zrotation Xrotation Yrotation
  JOINT RightUpLeg
  {
    OFFSET -8.9458 -8.66707 0.101652
    CHANNELS 3 Zrotation Xrotation Yrotation
    JOINT RightLeg
    {
      OFFSET 0 -44.4227 1.3727
      CHANNELS 3 Zrotation Xrotation Yrotation
      JOINT RightFoot
      {
        OFFSET 0.253549 -42.0924 -1.46059
        CHANNELS 3 Zrotation Xrotation Yrotation
        JOINT RightToes
        {
          OFFSET 0.04 -4.41509 8.4991
          CHANNELS 3 Zrotation Xrotation Yrotation
          End Site
          {
            OFFSET -0.08 -0.137448 9.77979
          }
        }
      }
    }
  }
  JOINT Spine
  {
    OFFSET 0 11.8905 0
    CHANNELS 3 Zrotation Xrotation Yrotation
    JOINT Spine1
    {
      OFFSET 0 25.6574 0.127663
      CHANNELS 3 Zrotation Xrotation Yrotation
      JOINT HEad
      {
        OFFSET 0 8.73416 0.011341
        CHANNELS 3 Zrotation Xrotation Yrotation
        End Site
        {
          OFFSET -0.29 12.7742 2.51395
        }
      }
      JOINT LeftShoulder1
      {
        OFFSET 8.99 -0.362252 -0.22
        CHANNELS 3 Zrotation Xrotation Yrotation
        JOINT LeftArm
        {
          OFFSET 10.2827 -0.00338 0.322123
          CHANNELS 3 Zrotation Xrotation Yrotation
          JOINT LeftForeArm
          {
            OFFSET 32.7669 0.099144 -1.42434
            CHANNELS 3 Zrotation Xrotation Yrotation
            JOINT LeftHand
            {
              OFFSET 27.5643 0.085362 1.02216
              CHANNELS 3 Zrotation Xrotation Yrotation
              End Site
              {
                OFFSET 16.7443 -0.6 1.50291
              }
            }
          }
        }
      }
      JOINT RightShoulder
      {
        OFFSET -8.99 -0.362252 -0.22
        CHANNELS 3 Zrotation Xrotation Yrotation
        JOINT RightArm
        {
          OFFSET -10.2827 -0.00338 0.322123
          CHANNELS 3 Zrotation Xrotation Yrotation
          JOINT RightForeArm
          {
            OFFSET -32.8971 0.099144 -1.42434
            CHANNELS 3 Zrotation Xrotation Yrotation
            JOINT RightHand
            {
              OFFSET -27.4921 0.085362 1.02216
              CHANNELS 3 Zrotation Xrotation Yrotation
              End Site
              {
                OFFSET -16.6312 -0.6 1.50291
              }
            }
          }
        }
      }
    }
  }
  JOINT LeftUpLeg
  {
    OFFSET 8.9458 -8.66707 0.101652
    CHANNELS 3 Zrotation Xrotation Yrotation
    JOINT LeftLeg
    {
      OFFSET 0 -44.4227 1.3727
      CHANNELS 3 Zrotation Xrotation Yrotation
      JOINT LeftFoot
      {
        OFFSET -0.253549 -42.0924 -1.46059
        CHANNELS 3 Zrotation Xrotation Yrotation
        JOINT LeftToes
        {
          OFFSET -0.04 -4.41509 8.4991
          CHANNELS 3 Zrotation Xrotation Yrotation
          End Site
          {
            OFFSET 0.08 -0.047448 9.77979
          }
        }
      }
    }
  }
}
MOTION
Frames:	19
Frame Time:	0.0166667
43.2084 88.6688 -116.185 -6.47819 -20.305 -10.7112 -15.1124 14.5709 5.24319 -1.95816 43.7013 5.43573 53.6454 7.3871 -2.4677 0.0462048 0.000533403 0.662642 -5.73192 8.12798 -1.27285 -0.0117904 0.04488 0.0339903 -5.99307 18.5394 0.682527 1.19271e-015 4.77083e-015 1.59028e-015 158.178 -62.5518 -164.632 -100.369 56.0923 -36.672 7.66251 18.8225 -3.59279 16.206 23.7218 21.1916 98.9194 -31.5223 82.7146 79.7765 67.3698 65.4591 -8.60676 16.3921 0.948744 13.2589 -18.2686 0.770759 -7.44583 47.6333 10.5366 38.3643 -6.47245 1.63451 -2.30919e-008 1.56037e-007 -4.88727e-009 
43.2048 90.212 -115.378 -6.07086 -18.7508 -11.8976 -15.7413 15.0179 5.38262 -2.06167 39.3935 6.10845 54.6899 7.04179 -2.5477 0.0462048 0.000533403 0.662642 -3.84124 6.02675 -1.79208 -0.00961958 0.04066 0.0286702 -9.35286 19.6778 5.92265 1.19271e-015 -1.59028e-015 -3.18055e-015 154.216 -62.7973 -168.6 -99.8774 56.0622 -36.5443 5.53845 19.0057 -4.45984 15.3396 24.9183 21.3872 98.4443 -31.1004 83.2109 78.3517 66.0928 65.6419 -6.46246 35.977 0.0831584 12.8644 -17.5506 -0.696081 -8.63097 44.8618 13.5891 38.3427 -6.37237 1.72878 -2.30919e-008 1.56037e-007 -4.88727e-009 
43.0698 91.5538 -114.672 -5.51109 -17.2021 -12.9626 -16.3908 15.3244 5.4569 -2.02329 35.2634 6.59444 55.5465 6.71776 -2.61306 0.0462048 0.000533403 0.662642 -2.13184 4.43961 -2.03895 -0.00768977 0.03629 0.0249099 -12.4062 20.2327 10.6262 -3.97569e-016 -1.59028e-015 -0 151.484 -62.7291 -171.36 -99.4152 55.987 -36.3964 7.15113 18.6421 -3.32451 14.5701 25.6228 21.3496 98.0257 -30.6856 83.6568 77.0622 64.9007 65.7854 -8.37603 24.3849 -0.0430914 12.4398 -16.9767 -1.90727 -9.2343 42.109 15.934 38.1622 -6.25797 1.81767 -2.30919e-008 1.56037e-007 -4.88727e-009 
42.8175 92.6855 -114.103 -4.8218 -15.6804 -13.9209 -17.0448 15.449 5.46255 -1.90223 31.4339 6.97594 56.2378 6.41053 -2.65814 0.0462048 0.000533403 0.662642 -0.607299 3.32396 -2.0895 -0.00591843 0.03213 0.0202696 -15.1182 20.3093 14.7724 7.95139e-016 -1.59028e-015 -0 149.828 -62.4735 -173.008 -99.1455 55.9619 -36.1738 5.84146 18.6515 -3.79817 14.2037 25.9217 20.9148 97.3801 -30.2099 83.8986 75.9109 63.9365 65.852 -6.37735 30.9724 0.348686 11.9942 -16.5607 -2.87971 -9.38464 39.4301 17.7122 37.8279 -6.13408 1.89964 -2.30919e-008 1.56037e-007 -4.88727e-009 
42.4829 93.6429 -113.618 -4.07479 -14.1835 -14.8847 -17.7053 15.5249 5.45095 -1.68392 27.5923 7.30854 56.7849 6.12223 -2.69677 0.0462048 0.000533403 0.662642 0.871673 2.3653 -2.06794 -0.00446494 0.01031 0.00679966 -17.694 20.1875 18.764 1.19271e-015 0 3.18055e-015 148.485 -62.1745 -174.368 -98.8957 55.9183 -35.9423 5.22837 18.5728 -3.88709 13.8212 26.0897 20.5296 96.8096 -29.7738 84.1578 74.7905 62.988 65.8604 -5.39791 33.5341 0.680017 11.568 -16.1689 -3.76082 -9.3445 36.7213 19.3068 37.4143 -5.99833 1.97935 -2.30919e-008 1.56037e-007 -4.88727e-009 
42.0906 94.4106 -113.24 -3.27939 -12.7251 -15.8516 -18.3726 15.5364 5.4163 -1.4107 23.836 7.63522 57.227 5.85325 -2.7265 0.0462048 0.000533403 0.662642 2.30352 1.5608 -1.99539 -0.00350988 0.00799 0.00469008 -20.0981 19.8767 22.5534 7.95139e-016 -1.59028e-015 -0 147.518 -61.8561 -175.388 -98.6403 55.8446 -35.73 4.96635 18.4068 -3.75236 13.4159 26.121 20.093 96.3264 -29.2622 84.4159 73.6962 62.0884 65.8223 -4.99316 33.8835 0.973169 11.1607 -15.8108 -4.55555 -9.13355 34.0047 20.7393 36.9351 -5.84972 2.05729 -2.30919e-008 1.56037e-007 -4.88727e-009 
41.65 95.0637 -112.935 -2.43962 -11.3156 -16.8182 -19.0419 15.4699 5.35248 -1.12468 20.2408 7.98671 57.606 5.59658 -2.74172 0.0462048 0.000533403 0.662642 3.6931 1.26172 -1.77365 -0.00372965 0.03577 0.0126001 -22.2469 19.1142 25.8676 -3.97569e-016 1.59028e-015 -0 147.39 -61.2928 -175.507 -98.4004 55.742 -35.5369 4.90569 18.1726 -3.49643 13.0365 25.6798 19.5654 95.8931 -28.6937 84.6553 72.6556 61.2854 65.7408 -4.87224 33.0546 1.19918 10.7624 -15.4837 -5.26865 -8.76606 31.2903 22.0302 36.4019 -5.68672 2.13478 -2.30919e-008 1.56037e-007 -4.88727e-009 
41.1809 95.5098 -112.685 -1.59096 -10.0064 -17.7847 -19.6726 15.3107 5.28721 -0.440619 16.9597 7.74955 57.5056 5.21448 -2.65806 0.0462048 0.000533403 0.662642 4.69507 1.41369 -1.5487 -0.0296199 0.03095 0.00297071 -24.1446 18.4107 28.7582 1.19271e-015 0 -0 148.491 -61.7876 -174.044 -97.838 56.0545 -34.5678 4.4303 15.2723 1.74911 10.3541 24.8495 17.0434 97.7529 -24.8478 84.7106 70.0491 60.3337 65.5472 -0.760718 30.4945 -4.98999 10.5486 -15.0663 -6.33769 -9.06279 28.4052 24.6041 36.1091 -5.44819 2.20303 -2.30919e-008 1.56037e-007 -4.88727e-009 
40.7374 95.901 -112.454 -0.742039 -8.80243 -18.7494 -20.3852 15.0173 5.26475 0.589799 14.1291 7.01943 57.038 4.6891 -2.46102 0.0462048 0.000533403 0.662642 5.32201 1.96519 -1.32532 -0.0295899 0.02928 0.00256071 -25.8519 17.7694 31.163 -3.97569e-016 1.59028e-015 -0 150.539 -63.1606 -171.302 -96.9852 56.6064 -33.1381 5.43784 14.364 3.16671 6.1375 23.8643 13.2465 101.1 -18.9462 84.2221 66.0865 59.4066 65.2496 5.22689 26.6212 -13.0374 10.4088 -14.6069 -7.44503 -9.54142 25.4423 27.8874 36.01 -5.10051 2.26022 -2.30919e-008 1.56037e-007 -4.88727e-009 
40.3135 96.2175 -112.264 0.099868 -7.70786 -19.7099 -21.2384 14.5411 5.30237 1.90909 11.8804 5.85484 56.2915 3.99687 -2.12368 0.0462048 0.000533403 0.662642 5.46508 2.89893 -1.08474 -0.0266399 0.02808 0.00182064 -27.232 17.1977 33.0552 7.95139e-016 -7.95139e-016 3.18055e-015 153.689 -65.1959 -167.2 -95.8693 57.4209 -31.3941 7.41604 14.8044 1.76895 1.04703 22.932 8.50373 105.468 -11.7541 82.8998 60.9957 58.5214 64.9405 12.2751 22.0077 -20.8017 10.318 -14.1353 -8.58367 -10.0642 22.4403 31.7475 36.0597 -4.62696 2.3009 -2.30919e-008 1.56037e-007 -4.88727e-009 
39.8981 96.4305 -112.129 0.916985 -6.81592 -20.5327 -22.3017 13.5097 5.46147 4.59455 11.2005 2.90077 54.2538 2.77147 -1.35732 0.0462048 0.000533403 0.662642 4.00199 4.96438 -0.790949 -0.0868876 0.0806201 -0.00233459 -27.4464 16.9128 33.2798 5.96354e-016 3.97569e-016 -0 157.618 -65.8102 -163.876 -99.0716 56.764 -22.7816 12.4866 17.8619 -7.09439 1.99073 21.317 8.17308 105.559 -11.067 81.791 52.9107 57.1905 64.7195 9.16049 22.3852 -5.28535 10.4357 -13.66 -9.83503 -11.6088 19.5305 37.5923 36.723 -3.83912 2.28266 -2.30919e-008 1.56037e-007 -4.88728e-009 
39.4636 96.5838 -112.119 1.70455 -6.10796 -21.2366 -23.6654 12.1147 5.74164 8.29691 11.477 -1.64029 51.459 1.25082 -0.423138 0.0462048 0.000533403 0.662642 1.57914 7.89217 -0.448639 -0.0805591 0.0735401 -0.00712457 -27.1483 17.0673 32.1396 5.46658e-016 4.96962e-016 -3.18055e-015 161.239 -65.2931 -161.74 -100.805 56.5382 -18.4678 14.9566 18.4856 -10.5805 3.88956 19.002 7.59703 105.2 -10.3023 80.14 43.1519 55.6285 64.7836 13.5143 20.2527 -1.98947 10.6091 -13.3059 -11.1834 -12.5596 16.7017 42.6761 37.1057 -2.92803 2.19579 -2.30919e-008 1.56037e-007 -4.88728e-009 
39.6831 96.6791 -112.424 1.18638 -6.62893 -21.779 -24.8965 12.5328 6.63283 12.5509 10.6631 -7.58667 48.5408 0.377117 -0.0363103 0.0462048 0.000533403 0.662642 -1.65582 11.504 0.0453582 -0.0709102 0.0645601 -0.0117083 -26.1839 17.6382 29.7402 0 7.95139e-016 -0 164.736 -63.739 -160.505 -101.993 56.7984 -16.2828 16.9411 19.5315 -13.7345 6.55814 16.1161 6.88265 104.614 -9.37384 78.2821 32.3454 53.8015 65.424 12.0204 18.9937 13.2972 11.6077 -12.1365 -12.1011 -13.9388 14.7541 46.8754 37.829 -2.66539 2.13852 -2.30919e-008 1.56037e-007 -4.88727e-009 
39.8954 96.7451 -112.903 0.630995 -7.26609 -22.2192 -26.4584 12.6562 7.63696 17.5769 10.2402 -14.6558 45.1272 -0.58524 0.471908 0.0462048 0.000533403 0.662642 -5.58545 15.6517 0.801442 -0.0609003 0.0601401 -0.0150385 -24.3821 18.5807 26.1621 -1.59028e-015 -1.59028e-015 3.18055e-015 168.215 -61.2964 -159.921 -102.961 57.4296 -15.1466 17.6456 19.567 -14.3078 9.86539 12.7936 6.45915 103.932 -8.45733 76.5084 25.8565 52.7353 67.0554 14.6446 18.4412 14.922 12.5805 -11.0563 -13.0704 -15.1197 12.9858 50.5222 38.402 -2.39198 2.06724 -2.30919e-008 1.56037e-007 -4.88728e-009 
40.1241 96.8084 -113.526 0.0497266 -7.97374 -22.5786 -28.7184 13.059 8.9346 23.9359 8.64779 -22.61 40.7151 -1.22249 0.808735 0.0462048 0.000533403 0.662642 -9.13061 19.2237 1.74047 0.0214198 -0.02144 -0.00527051 -22.6871 19.8024 23.0274 -7.95139e-016 0 -0 170.737 -59.1842 -159.842 -103.79 58.2952 -14.5193 18.3242 19.9599 -15.0888 12.7476 10.1553 6.16967 103.253 -7.7264 75.0115 22.0312 52.0065 69.2061 13.6903 18.0238 19.8992 13.483 -10.0718 -14.0565 -16.1229 11.3958 53.6722 38.848 -2.09307 1.98252 -2.30919e-008 1.56037e-007 -4.88728e-009 
40.3936 96.8772 -114.234 -0.5441 -8.69435 -22.8776 -31.2475 13.7477 10.4014 30.7067 5.78994 -30.7297 35.4833 -1.64075 0.981838 0.0462048 0.000533403 0.662642 -12.2653 22.2352 2.77714 0.0266799 -0.02301 -0.00346064 -20.9924 21.0544 20.2582 -7.95139e-016 0 -0 172.829 -57.2623 -159.905 -104.472 59.2811 -14.1252 18.4191 19.8327 -14.5854 15.3775 7.99157 6.03079 102.589 -7.23167 73.8263 19.8566 51.4836 71.4221 15.0358 18.1848 18.1164 14.2747 -9.19329 -15.0195 -16.9411 9.98463 56.3729 39.1608 -1.76088 1.87864 -2.30919e-008 1.56037e-007 -4.88727e-009 
40.741 96.9117 -114.921 -1.12987 -9.38183 -23.127 -33.5008 14.5823 11.8525 35.6075 3.15004 -37.1237 31.4847 -1.67292 0.895966 0.0462048 0.000533403 0.662642 -14.9718 24.7195 3.82338 0.0258425 -0.01987 -0.00346064 -19.4164 22.3247 17.8428 -2.38542e-015 -3.18055e-015 -3.18055e-015 174.592 -55.6139 -159.968 -104.979 60.3019 -13.8615 18.578 19.9304 -14.414 17.6542 6.30401 5.94205 101.994 -6.95472 72.9484 18.715 51.0622 73.5568 14.5114 18.2569 19.2881 14.9429 -8.52784 -15.9096 -17.714 8.96367 58.7476 39.2753 -1.51564 1.7945 -2.30919e-008 1.56037e-007 -4.88727e-009 
41.1741 96.9051 -115.5 -1.68624 -10.0034 -23.3295 -35.3481 15.3527 13.1947 39.2244 1.01219 -42.1425 28.2526 -1.60878 0.814199 0.0462048 0.000533403 0.662642 -17.0877 26.3332 4.73808 0.0228354 -0.0121 -0.00346064 -18.1383 23.9343 15.869 -1.59028e-015 3.18055e-015 -3.18055e-015 176.052 -54.6411 -159.932 -105.226 61.3144 -13.7005 18.4635 19.7353 -13.6326 19.47 5.39758 5.75769 101.517 -6.8818 72.3602 18.1872 50.7267 75.4377 15.2709 18.5523 16.9751 15.4668 -8.03787 -16.707 -18.4563 8.28047 60.8199 39.1871 -1.33099 1.72237 -2.30919e-008 1.56037e-007 -4.88728e-009 
41.6913 96.8541 -115.902 -2.19789 -10.5397 -23.4853 -36.7447 15.9556 14.3592 41.8557 -0.583012 -46.0413 25.558 -1.53196 0.739238 0.0462048 0.000533403 0.662642 -18.5682 27.2222 5.40825 0.0194154 -0.00463002 -0.00346064 -17.1945 25.7625 14.2802 1.59028e-015 -3.18055e-015 6.36111e-015 177.322 -54.2849 -159.687 -105.097 62.3023 -13.7167 18.3975 19.6758 -13.1725 20.7973 5.13207 5.45566 101.182 -6.96122 72.0256 18.0192 50.4446 77.0596 15.0469 18.7956 16.8794 15.8407 -7.68243 -17.4011 -19.1922 7.88947 62.6139 38.9034 -1.19012 1.65506 -2.30919e-008 1.56037e-007 -4.88727e-009 
